<svg xmlns="http://www.w3.org/2000/svg" viewBox="0 0 48.97 46.78"><defs><style>.cls-1{fill:#404749;}.cls-2{fill:#63d8fc;}.cls-3{fill:#ffb90b;}.cls-4{fill:#ff6357;}.cls-5{fill:#ffc627;}.cls-6{fill:#fff;}.cls-7{fill:none;stroke:#39b56b;stroke-linecap:round;stroke-miterlimit:10;stroke-width:0.22px;}.cls-8{fill:#39b56b;}</style></defs><title>자산 1</title><g id="레이어_2" data-name="레이어 2"><g id="레이어_1-2" data-name="레이어 1"><rect class="cls-1" x="24.02" y="1.52" width="0.92" height="10.59"/><path class="cls-2" d="M31.28,5.71c-2.5-1.48-5,1.48-7.5,0V.43c2.5,1.48,5-1.48,7.5,0Z"/><rect class="cls-3" x="1.46" y="25.32" width="46.05" height="19.92"/><path class="cls-4" d="M7.19,25.32c-.72,0-.85-.37-.3-.83L23.47,11.05a1.67,1.67,0,0,1,2,0L42.08,24.49c.56.46.43.83-.29.83Z"/><polygon class="cls-5" points="39.77 25.32 24.49 12.92 9.21 25.32 12.8 25.32 12.8 45.24 36.18 45.24 36.18 25.32 39.77 25.32"/><path class="cls-2" d="M28.55,20.14a4.06,4.06,0,1,1-4.06-4.06A4.06,4.06,0,0,1,28.55,20.14Z"/><path class="cls-6" d="M28,20.14a3.49,3.49,0,1,1-3.48-3.49A3.48,3.48,0,0,1,28,20.14Z"/><path class="cls-1" d="M24.49,18.05a.11.11,0,0,1-.12-.11v-.79a.12.12,0,0,1,.12-.12.12.12,0,0,1,.11.12v.79A.11.11,0,0,1,24.49,18.05Z"/><path class="cls-1" d="M24.49,23.24a.12.12,0,0,1-.12-.12v-.78a.12.12,0,0,1,.12-.12.11.11,0,0,1,.11.12v.78A.11.11,0,0,1,24.49,23.24Z"/><path class="cls-1" d="M27.47,20.25h-.78a.11.11,0,0,1-.12-.11.12.12,0,0,1,.12-.12h.78a.12.12,0,0,1,.12.12A.11.11,0,0,1,27.47,20.25Z"/><path class="cls-1" d="M22.29,20.25H21.5a.12.12,0,0,1-.12-.11A.12.12,0,0,1,21.5,20h.79a.11.11,0,0,1,.11.12A.11.11,0,0,1,22.29,20.25Z"/><path class="cls-1" d="M26,18.7a.09.09,0,0,1-.08,0,.12.12,0,0,1,0-.16l.56-.56a.12.12,0,0,1,.16,0,.12.12,0,0,1,0,.17l-.56.55A.09.09,0,0,1,26,18.7Z"/><path class="cls-1" d="M22.37,22.36l-.08,0a.12.12,0,0,1,0-.16l.56-.56a.12.12,0,0,1,.16,0,.1.1,0,0,1,0,.16l-.55.56A.16.16,0,0,1,22.37,22.36Z"/><path class="cls-1" d="M26.6,22.36a.11.11,0,0,1-.08,0L26,21.77a.11.11,0,1,1,.16-.16l.56.56a.1.1,0,0,1,0,.16A.11.11,0,0,1,26.6,22.36Z"/><path class="cls-1" d="M22.93,18.7a.09.09,0,0,1-.08,0l-.56-.55a.12.12,0,1,1,.17-.17l.55.56a.1.1,0,0,1,0,.16A.09.09,0,0,1,22.93,18.7Z"/><line class="cls-7" x1="24.49" y1="20.11" x2="24.49" y2="19.06"/><line class="cls-7" x1="24.49" y1="20.11" x2="26.32" y2="20.11"/><path class="cls-4" d="M24.9,20.14a.42.42,0,1,1-.41-.42A.42.42,0,0,1,24.9,20.14Z"/><rect class="cls-6" x="14.78" y="26.84" width="3.72" height="3.72" rx="0.65"/><path class="cls-6" d="M23.28,26.84h2.41a.65.65,0,0,1,.65.65V29.9a.65.65,0,0,1-.65.65H23.28a.66.66,0,0,1-.66-.66V27.5A.66.66,0,0,1,23.28,26.84Z"/><rect class="cls-6" x="30.48" y="26.84" width="3.72" height="3.72" rx="0.65"/><rect class="cls-6" x="14.78" y="32.85" width="3.72" height="3.72" rx="0.65"/><path class="cls-6" d="M23.28,32.85h2.41a.65.65,0,0,1,.65.65v2.41a.65.65,0,0,1-.65.65H23.28a.66.66,0,0,1-.66-.66V33.5A.65.65,0,0,1,23.28,32.85Z"/><rect class="cls-6" x="30.48" y="32.85" width="3.72" height="3.72" rx="0.65"/><rect class="cls-4" x="18.87" y="39.03" width="5.28" height="6.21"/><rect class="cls-4" x="24.82" y="39.03" width="5.28" height="6.21"/><rect class="cls-8" y="45.28" width="48.97" height="1.5"/></g></g></svg>