<svg xmlns="http://www.w3.org/2000/svg" viewBox="0 0 49.03 50.1"><defs><style>.cls-1,.cls-2,.cls-4,.cls-6{fill:none;}.cls-1,.cls-2,.cls-5{stroke:#353535;}.cls-1,.cls-2,.cls-3,.cls-4,.cls-5,.cls-6{stroke-linecap:round;stroke-linejoin:round;}.cls-1{stroke-width:3.02px;}.cls-2,.cls-3,.cls-4,.cls-5{stroke-width:1.51px;}.cls-3{fill:#00a0c6;}.cls-3,.cls-6{stroke:#00a0c6;}.cls-4{stroke:#fff;}.cls-5{fill:#353535;}.cls-6{stroke-width:6.8px;}</style></defs><title>자산 8</title><g id="레이어_2" data-name="레이어 2"><g id="레이어_1-2" data-name="레이어 1"><path class="cls-1" d="M24.38,3.4H33.8c2.35,0,4.28,1.5,4.28,3.32v3.33"/><path class="cls-1" d="M38.08,39.89v4.42a4.29,4.29,0,0,1-4.28,4.28h-28a4.29,4.29,0,0,1-4.28-4.28V7.68A4.3,4.3,0,0,1,5.79,3.4h8.77"/><line class="cls-2" x1="8.91" y1="14.66" x2="16.84" y2="14.66"/><line class="cls-2" x1="8.91" y1="22.77" x2="28.91" y2="22.77"/><line class="cls-2" x1="8.91" y1="30.88" x2="28.91" y2="30.88"/><line class="cls-2" x1="8.91" y1="38.99" x2="28.91" y2="38.99"/><path class="cls-3" d="M46.41,39.69l0-12.43s-3.74-2.67-3.75-9.58h0a4.51,4.51,0,1,0-5.82,0h0c0,6.9-3.71,9.59-3.71,9.59v.79l0,11.64"/><path class="cls-4" d="M31.23,28.59c0-1.49,3.81-2.7,8.52-2.73s8.52,1.17,8.53,2.66"/><path class="cls-5" d="M46.41,39.69c0,1.16-3,2.1-6.65,2.1s-6.65-.92-6.65-2.08,3-2.09,6.64-2.09S46.41,38.54,46.41,39.69Z"/><line class="cls-6" x1="14.56" y1="3.4" x2="24.38" y2="3.4"/></g></g></svg>