<svg xmlns="http://www.w3.org/2000/svg" viewBox="0 0 92.55 78.06"><defs><style>.cls-1,.cls-2{fill:#1683c3;}.cls-2{stroke:#fff;stroke-linecap:round;stroke-linejoin:round;}</style></defs><title>자산 4</title><g id="레이어_2" data-name="레이어 2"><g id="레이어_1-2" data-name="레이어 1"><circle class="cls-1" cx="58.59" cy="44.1" r="33.96"/><path class="cls-1" d="M4.42,18.46A17.64,17.64,0,0,0,2.53,17q-1-.66-1.89-1.2a.48.48,0,0,1-.16-.18l-.18-.3L.14,15a.67.67,0,0,1-.07-.26.34.34,0,0,0,0-.19c0-.07,0-.11,0-.12a.63.63,0,0,1,.5,0,2.34,2.34,0,0,1,.48.21c.26.18.56.4.9.67s.67.55,1,.85.66.6,1,.9a10.57,10.57,0,0,1,.76.79c.05.07.08.12.07.15a.5.5,0,0,1,0,.14.88.88,0,0,0,0,.25c0,.12,0,.18,0,.2s-.09,0-.1,0A.14.14,0,0,0,4.42,18.46Zm2.4,3.42a2.18,2.18,0,0,1,.36-.22c.1-.06.26,0,.48.11a2.65,2.65,0,0,1,1.4,1.29,3.84,3.84,0,0,1,.39,1.84,5.82,5.82,0,0,1-.36,1.92,4.46,4.46,0,0,1-.9,1.55c-.11.12-.19.16-.23.13a.28.28,0,0,0-.21,0,.76.76,0,0,0-.31.13c-.12.07-.21.08-.27,0a.75.75,0,0,1-.2-.26l-.16-.31a15.23,15.23,0,0,1-1-3.58,38.74,38.74,0,0,1-.53-4.54,5.05,5.05,0,0,0-.81.47,6.82,6.82,0,0,0-.79.63c-.25.22-.47.45-.68.67a5.31,5.31,0,0,0-.46.55c0,.09-.15.11-.28.07a2.75,2.75,0,0,1-.65-.43.82.82,0,0,1-.23-.34.44.44,0,0,1,.06-.41A5,5,0,0,1,2,20.52a7.24,7.24,0,0,1,.8-.64,6.3,6.3,0,0,1,.87-.5,2.75,2.75,0,0,1,.88-.26,2.14,2.14,0,0,1,.73.07,1.76,1.76,0,0,1,.67.34.9.9,0,0,1,.29.65c0,.27,0,.54.06.8s0,.45.07.64,0,.4.06.59A1.53,1.53,0,0,1,6.63,22Zm.45,4.55a3.22,3.22,0,0,0,.28-.67A4.31,4.31,0,0,0,7.72,25a5.7,5.7,0,0,0,0-.82,2.48,2.48,0,0,0-.1-.75c0-.06-.14-.08-.39-.08H6.61c.1.61.2,1.16.31,1.65S7.15,26,7.27,26.43ZM7.94,12.9c.13.22.27.44.41.66l.42.69.9,1.62c.35.65.72,1.33,1.11,2l1-.59A14,14,0,0,1,13,16.63a8.38,8.38,0,0,1,1.34-.49,2.2,2.2,0,0,1,1.17,0,.22.22,0,0,1-.14.35,3.84,3.84,0,0,0-.6.34l-.46.33L14,17.4q-.74.53-1.44,1c-.47.28-.86.51-1.19.68l1.34,2.54.67,1.31a.15.15,0,0,1-.16,0,2.72,2.72,0,0,0-.3-.19,1.74,1.74,0,0,0-.39-.2,1.48,1.48,0,0,1-.5-.35,9.08,9.08,0,0,1-1.66-2A21.55,21.55,0,0,1,9,17.66a20.43,20.43,0,0,1-1-2.35,16.49,16.49,0,0,1-.54-1.68.76.76,0,0,1,.09-.53,2.68,2.68,0,0,0,.16-.36C7.71,12.62,7.8,12.67,7.94,12.9Z"/><path class="cls-1" d="M22.37,7.26c.17.51.39,1.06.64,1.65s.53,1.2.83,1.83a5.18,5.18,0,0,1,.76-.62,9.44,9.44,0,0,1,1-.62c.34-.19.68-.36,1-.5a6.55,6.55,0,0,1,.84-.31,2.6,2.6,0,0,1,.45-.08l.42,0a.93.93,0,0,1,.4,0,9.51,9.51,0,0,1-1,.91c-.4.3-.8.59-1.21.86s-.8.53-1.17.77l-.95.58c.28.57.56,1.11.83,1.63l.78,1.45c.25.45.47.83.67,1.16s.36.57.48.73a.48.48,0,0,1-.31-.12l-.35-.23a5.78,5.78,0,0,1-.76-.61A5,5,0,0,1,25,15a23.71,23.71,0,0,1-1.48-2.26,23.58,23.58,0,0,1-1.21-2.41c0,.79,0,1.6-.09,2.45a23.52,23.52,0,0,1-.33,2.44,15,15,0,0,1-.63,2.24,7.47,7.47,0,0,1-1,1.84,1.32,1.32,0,0,1-.59.15,1.89,1.89,0,0,1-.6-.09.54.54,0,0,1-.28-.17L18.64,19a2.54,2.54,0,0,0-.37-.35,1.66,1.66,0,0,1-.34-.37,13.72,13.72,0,0,1-1.3-2.56c-.32-.86-.59-1.69-.8-2.48a.34.34,0,0,1,0-.15A.44.44,0,0,1,16,13a.48.48,0,0,1,.15.1.83.83,0,0,0,.16.13,2.16,2.16,0,0,1,.3.18,1,1,0,0,1,.21.2c.3.69.62,1.38,1,2.07a18.21,18.21,0,0,0,1.15,1.91,6.73,6.73,0,0,0,.88-1.32,16.25,16.25,0,0,0,1-2.08,22.12,22.12,0,0,0,.78-2.46,11.35,11.35,0,0,0,.34-2.42q-.12-.33-.24-.69c-.08-.24-.15-.48-.22-.71,0,0,0-.1.05-.18a1.54,1.54,0,0,0,.15-.29.63.63,0,0,0,.1-.27A.24.24,0,0,1,21.85,7L22,6.85a.19.19,0,0,1,.16-.06Z"/><path class="cls-1" d="M30.07.31c.18.56.37,1.17.57,1.82s.41,1.29.62,1.93.41,1.25.63,1.84.42,1.08.62,1.5l.18,1.14a.87.87,0,0,0,0,.48,3,3,0,0,0,.2.49l.27.48a2,2,0,0,1,.2.46.48.48,0,0,1,0,.32c0,.13-.1.23-.13.31s-.06.12-.08.12l-.2.11c-.48-.78-.95-1.6-1.39-2.47s-.84-1.75-1.2-2.64a27.28,27.28,0,0,1-.95-2.66A20.5,20.5,0,0,1,28.79,1a.59.59,0,0,1,.15-.27,1.73,1.73,0,0,0,.24-.27A1.14,1.14,0,0,1,29.59,0a1.21,1.21,0,0,1,.3.11A.43.43,0,0,1,30.07.31ZM35.26,13a.55.55,0,0,1,.34.64,1.78,1.78,0,0,1-.3.72c-.12.16-.22.25-.31.25l-.27,0-.36.06a.48.48,0,0,1-.36,0,1.56,1.56,0,0,1-.48-.4,4.48,4.48,0,0,1-.38-.58.32.32,0,0,1,0-.27.87.87,0,0,1,.22-.26,2.61,2.61,0,0,1,.3-.2l.28-.12a.43.43,0,0,1,.34.06.49.49,0,0,0,.27.13A1,1,0,0,0,35.26,13Z"/><path class="cls-2" d="M57.16,38.52c-.23,0-.36-2.87-.45-4C56.5,32,55.4,29,55.46,27.25A30.81,30.81,0,0,0,55,21.09c-.14-1.32-.12-3.23-2-3s-2.52,3.47-1.82,6.68c0,0,.17,6.75.51,10.2a7.89,7.89,0,0,1,.19,3.32,24.39,24.39,0,0,1,0,3.65"/><path class="cls-2" d="M66.63,63.33s-.52-4.34.5-6.1,2.9-2.94,3.36-7,.8-8.61.25-10.13a14.73,14.73,0,0,1-1.27-1.72c-.26-.44-4.09-1.22-7.34-1.86a9.56,9.56,0,0,0,1.24-3.55"/><path class="cls-2" d="M69.89,41.6a1.44,1.44,0,0,0,1-1.81c-.29-1.3-.67-3.37-1.61-3.89s-2.34-.4-2.66.61a44,44,0,0,0-1.69,5.88c0,1-.63,4.79,1.5,4.52s2-1.9,2.22-3.43A10.92,10.92,0,0,0,69.89,41.6Z"/><path class="cls-2" d="M65.17,39.8a18.55,18.55,0,0,1,1.19-4c.44-1-.5-3.13-1.48-3.8s-2.68.39-2.8,1-1.19,5.81-1.32,7.5S60.11,45.16,61,46s3.31.1,3.4-1.14.26-3.37.26-3.37Z"/><path class="cls-2" d="M61.09,39.28a20.23,20.23,0,0,1,.77-4.49c.35-1.13-.93-3.31-2.07-3.9s-2.83.76-2.88,1.47-.54,6.4-.46,8.23-.11,5.09.95,5.84,3.57-.31,3.52-1.66-.15-3.65-.15-3.65Z"/><path class="cls-2" d="M59.16,48.82a6.07,6.07,0,0,0-5.57-4.94,5.76,5.76,0,0,0,1.55-3.78A7.41,7.41,0,0,0,60.73,37c1.11-2.32,0-4.35-2-3.36s-3,.59-4.59,1.1c-2.56,1.6-4.7,1.55-5.46,3.2-2.7,5.86-3.22,8-1.59,10.5,1.27,2,3.94,4.69,4.68,6.35,0,0,.91,1.11.51,8"/><path class="cls-2" d="M65.91,65.65h-13A2.67,2.67,0,0,1,50.25,63h0a2.67,2.67,0,0,1,2.66-2.66h13A2.66,2.66,0,0,1,68.56,63h0A2.66,2.66,0,0,1,65.91,65.65Z"/></g></g></svg>