<svg xmlns="http://www.w3.org/2000/svg" viewBox="0 0 82.69 77.68"><defs><style>.cls-1,.cls-2{fill:#1683c3;}.cls-2{stroke:#fff;stroke-linecap:round;stroke-linejoin:round;}</style></defs><title>자산 9</title><g id="레이어_2" data-name="레이어 2"><g id="레이어_1-2" data-name="레이어 1"><circle class="cls-1" cx="48.72" cy="43.72" r="33.96" transform="matrix(0.16, -0.99, 0.99, 0.16, -2.12, 84.97)"/><path class="cls-2" d="M57.82,63s-.85-4.28,0-6.12,2.66-3.16,2.81-7.27S60.8,41,60.13,39.5a15,15,0,0,1-1.39-1.61c-.29-.42-4.18-.91-7.47-1.3a9.33,9.33,0,0,0,1-3.63c.23-3.24.85-13,.63-14.62a1.82,1.82,0,0,0-2-1.76c-.6,0-1.56.57-2.13,4.64-.3,2.14-1.77,12.51-1.81,13.38,0,.25,0,1.31-.05,1.78,0,.72,0,2.65-.36,2.62-.23,0-.58-2.84-.75-3.92-.4-2.52-1.73-5.43-1.8-7.19a30.67,30.67,0,0,0-1-6.1c-.24-1.3-.36-3.21-2.24-2.85s-2.25,3.66-1.3,6.8c0,0,.68,6.72,1.29,10.13a7.93,7.93,0,0,1,.44,3.3,22.77,22.77,0,0,1,.33,3.63"/><path class="cls-2" d="M59.41,41.1a1.45,1.45,0,0,0,.8-1.88c-.39-1.28-.92-3.32-1.9-3.76s-2.36-.22-2.6.81a42.35,42.35,0,0,0-1.24,6c.05,1-.27,4.82,1.84,4.38s1.88-2,1.95-3.58A11.56,11.56,0,0,0,59.41,41.1Z"/><path class="cls-2" d="M54.73,40.53a19.25,19.25,0,0,1,.88-4.11c.37-1-.73-3.09-1.76-3.67s-2.64.58-2.72,1.25-.73,5.88-.73,7.57-.3,4.69.66,5.43,3.3-.15,3.3-1.4V42.22Z"/><path class="cls-2" d="M50,49.12A6.06,6.06,0,0,0,44,44.62a5.8,5.8,0,0,0,1.26-3.89,7.36,7.36,0,0,0,5.32-3.55c.93-2.4-.37-4.34-2.25-3.19s-3,.82-4.49,1.44c-2.43,1.79-4.57,1.9-5.2,3.61-2.25,6.06-2.6,8.22-.78,10.6,1.41,1.85,4.28,4.37,5.15,6,0,0,1,1,1.12,7.91"/><path class="cls-2" d="M57.07,66.72h-13a2.66,2.66,0,0,1-2.66-2.65h0a2.67,2.67,0,0,1,2.66-2.66h13a2.66,2.66,0,0,1,2.65,2.66h0A2.65,2.65,0,0,1,57.07,66.72Z"/><path class="cls-1" d="M4.79,10.06l-.27.31a.37.37,0,0,1-.25.16.44.44,0,0,1-.32,0l-.29-.1a1.08,1.08,0,0,0-.31-.07.43.43,0,0,1-.29-.15,1.8,1.8,0,0,1-.34-.4,4.36,4.36,0,0,1-.28-.45,10.65,10.65,0,0,1-.69-1.63c-.2-.6-.39-1.21-.55-1.84L.8,6.1l-.41.19a.52.52,0,0,1-.27-.22A.66.66,0,0,1,0,5.82a.29.29,0,0,1,.07-.25l.17-.25A1.82,1.82,0,0,0,.35,5a.59.59,0,0,1,.19-.26c.31-.2.69-.43,1.15-.67a12.57,12.57,0,0,1,1.45-.65A8.77,8.77,0,0,1,4.6,3a2.15,2.15,0,0,1,1.2.06.28.28,0,0,1-.13.21.44.44,0,0,0-.18.21,3.91,3.91,0,0,0-.26.44.66.66,0,0,1-.35.33c-.31.13-.64.26-1,.42l-1.09.47c.11.6.24,1.19.4,1.77a11.73,11.73,0,0,0,.57,1.67,11.21,11.21,0,0,0,1-.7c.4-.29.82-.61,1.25-.94s.87-.67,1.29-1L8.48,5a.39.39,0,0,1,0,.13.85.85,0,0,1,0,.27.64.64,0,0,1-.16.33,1.1,1.1,0,0,0-.15.2A1.14,1.14,0,0,0,8,6.42a1,1,0,0,1-.2.45c-.43.51-.9,1-1.42,1.6S5.31,9.56,4.79,10.06Zm7.5,2.41a1.51,1.51,0,0,1,.48-.16l.23,0,.18.06.13,0a.11.11,0,0,1,.09.05,1,1,0,0,1,.06.87c-.19.65-.34,1.32-.47,2s-.22,1.31-.27,1.82l.34-.42.58-.62c.21-.23.44-.46.68-.68a5,5,0,0,1,.73-.55.71.71,0,0,1,.38-.08.55.55,0,0,1,.31.07.85.85,0,0,1,.29.17c.12.09.17.3.14.63-.06.49-.14,1-.24,1.64s-.18,1.22-.26,1.85-.14,1.27-.18,1.89a12.5,12.5,0,0,0,0,1.71c.33-.36.67-.78,1-1.23s.71-.94,1.06-1.45.71-1,1.06-1.55l1-1.53c.05-.11.08,0,.08.27,0,.13-.08.29-.12.47a2.15,2.15,0,0,1-.15.51,1.57,1.57,0,0,0-.11.53,1.74,1.74,0,0,1-.13.51c-.23.49-.48,1-.76,1.51a18.18,18.18,0,0,1-1.13,1.8l-.37.46c-.12.14-.24.28-.36.4l-.34.32a1.22,1.22,0,0,1-.32.25c-.16.09-.26.07-.31,0a.59.59,0,0,0-.26-.29.81.81,0,0,0-.34-.09.36.36,0,0,1-.29-.23,1.53,1.53,0,0,0-.06-.22,5.63,5.63,0,0,1-.13-1.36c0-.55,0-1.12.05-1.72s.08-1.15.14-1.68.1-.94.13-1.24a15,15,0,0,0-1.22,1.27c-.4.47-.75.9-1,1.28l-.21.25a.82.82,0,0,1-.2.19c-.13,0-.22,0-.28-.2s-.12-.35-.19-.51a.23.23,0,0,0-.08-.14.2.2,0,0,1-.08-.17v-.22c0-.08,0-.16,0-.25a16,16,0,0,1,.15-1.84q.17-1.2.45-2.79l-.49.41c-.19.17-.39.36-.59.56l-.62.6c-.2.2-.38.39-.53.57l-.69.73a.23.23,0,0,1-.3.07c-.05,0-.08,0-.1,0s0,0-.07-.08a1.06,1.06,0,0,1,0-.32,2.09,2.09,0,0,1,.07-.33,4.38,4.38,0,0,1,.56-1,10.32,10.32,0,0,1,.85-1c-.2-.5-.42-1.06-.66-1.69s-.46-1.19-.67-1.7c-.49.47-1,.91-1.48,1.32l-1.22,1a2,2,0,0,1-.62.31c-.19.06-.41.11-.65.16a1.75,1.75,0,0,0-.4.16.61.61,0,0,1-.41.07.16.16,0,0,0-.12,0c-.05,0-.09,0-.1,0a.21.21,0,0,1,0-.25,1.5,1.5,0,0,1,.16-.2c.23-.24.54-.53.91-.87s.78-.72,1.23-1.12l1.38-1.22L9,9q.64-.54,1.2-1c.37-.28.66-.49.87-.62a1.07,1.07,0,0,0,.2-.14c.08-.07.15-.11.21-.1s.08,0,.11.12a.45.45,0,0,1,0,.17,1.25,1.25,0,0,1,0,.35c0,.13-.05.25-.07.35a.54.54,0,0,1-.18.29,8.68,8.68,0,0,1-.63.66c-.26.26-.56.56-.9.88a9.28,9.28,0,0,1,.26,1.07c.06.37.12.73.17,1.08s.1.68.14,1a5,5,0,0,0,.16.81c.32-.32.64-.61,1-.87A5.56,5.56,0,0,1,12.29,12.47Z"/><path class="cls-1" d="M14.7.31c.18.56.38,1.17.57,1.82s.41,1.29.62,1.93.42,1.25.63,1.84.42,1.08.62,1.5l.19,1.15a.75.75,0,0,0,0,.47,1.87,1.87,0,0,0,.2.49c.08.16.17.32.26.48a1.65,1.65,0,0,1,.2.46.48.48,0,0,1,0,.32c-.05.13-.1.23-.13.31s-.06.12-.08.12l-.19.11c-.49-.78-.95-1.6-1.39-2.47S15.31,7.09,15,6.2A24.8,24.8,0,0,1,14,3.54,20.6,20.6,0,0,1,13.42,1a.72.72,0,0,1,.16-.27,2,2,0,0,0,.23-.28A1.26,1.26,0,0,1,14.22,0a1,1,0,0,1,.3.11A.34.34,0,0,1,14.7.31ZM19.89,13a.55.55,0,0,1,.34.64,1.65,1.65,0,0,1-.3.72c-.12.16-.22.25-.3.25l-.28,0-.35.06a.47.47,0,0,1-.36,0,1.72,1.72,0,0,1-.49-.4,3.61,3.61,0,0,1-.37-.58.26.26,0,0,1,0-.27.71.71,0,0,1,.21-.26,2,2,0,0,1,.31-.2l.27-.12a.43.43,0,0,1,.34.06.49.49,0,0,0,.27.13A1,1,0,0,0,19.89,13Z"/></g></g></svg>