<svg xmlns="http://www.w3.org/2000/svg" xmlns:xlink="http://www.w3.org/1999/xlink" viewBox="0 0 375 96.94"><defs><style>.cls-1,.cls-3{fill:none;}.cls-2{fill:#6fa3d5;}.cls-3{stroke:#fff;stroke-miterlimit:10;stroke-width:0.3px;}.cls-4{opacity:0.5;}.cls-5{clip-path:url(#clip-path);}.cls-6{fill:#d87373;}.cls-7{fill:#ea8080;}.cls-8{fill:#db9d72;}.cls-9{fill:#eabd8d;}.cls-10{fill:#513419;}.cls-11{fill:#3a312d;}.cls-12{fill:#d87c2e;}.cls-13{fill:#e28350;}</style><clipPath id="clip-path"><rect class="cls-1" x="8" y="12.21" width="72.5" height="66"/></clipPath></defs><title>자산 1</title><g id="레이어_2" data-name="레이어 2"><g id="레이어_1-2" data-name="레이어 1"><rect class="cls-2" width="375" height="96.94"/><polygon class="cls-3" points="9.17 30.78 6 27.75 9.17 24.72 12.34 27.75 9.17 30.78"/><rect class="cls-3" x="6.93" y="25.67" width="4.48" height="4.28"/><polygon class="cls-3" points="28.43 14.34 25.33 13.41 24.1 11.02 25.42 8.42 27.57 7.71 26.7 11.02 28.43 14.34"/><polygon class="cls-3" points="53.64 30.78 50.47 27.75 53.64 24.72 56.81 27.75 53.64 30.78"/><rect class="cls-3" x="51.4" y="25.67" width="4.48" height="4.28"/><polygon class="cls-3" points="72.9 14.34 69.8 13.41 68.57 11.02 69.89 8.42 72.04 7.71 71.17 11.02 72.9 14.34"/><polygon class="cls-3" points="98.11 30.78 94.94 27.75 98.11 24.72 101.28 27.75 98.11 30.78"/><rect class="cls-3" x="95.87" y="25.67" width="4.48" height="4.28"/><polygon class="cls-3" points="117.37 14.34 114.27 13.41 113.04 11.02 114.36 8.42 116.51 7.71 115.64 11.02 117.37 14.34"/><polygon class="cls-3" points="142.58 30.78 139.41 27.75 142.58 24.72 145.75 27.75 142.58 30.78"/><rect class="cls-3" x="140.34" y="25.67" width="4.48" height="4.28"/><polygon class="cls-3" points="161.84 14.34 158.74 13.41 157.51 11.02 158.83 8.42 160.98 7.71 160.11 11.02 161.84 14.34"/><polygon class="cls-3" points="187.05 30.78 183.88 27.75 187.05 24.72 190.22 27.75 187.05 30.78"/><rect class="cls-3" x="184.81" y="25.67" width="4.48" height="4.28"/><polygon class="cls-3" points="206.31 14.34 203.21 13.41 201.98 11.02 203.3 8.42 205.45 7.71 204.58 11.02 206.31 14.34"/><polygon class="cls-3" points="231.52 30.78 228.35 27.75 231.52 24.72 234.69 27.75 231.52 30.78"/><rect class="cls-3" x="229.28" y="25.67" width="4.48" height="4.28"/><polygon class="cls-3" points="250.78 14.34 247.68 13.41 246.45 11.02 247.77 8.42 249.92 7.71 249.05 11.02 250.78 14.34"/><polygon class="cls-3" points="275.99 30.78 272.82 27.75 275.99 24.72 279.16 27.75 275.99 30.78"/><rect class="cls-3" x="273.75" y="25.67" width="4.48" height="4.28"/><polygon class="cls-3" points="295.25 14.34 292.15 13.41 290.92 11.02 292.24 8.42 294.39 7.71 293.52 11.02 295.25 14.34"/><polygon class="cls-3" points="320.46 30.78 317.29 27.75 320.46 24.72 323.63 27.75 320.46 30.78"/><rect class="cls-3" x="318.22" y="25.67" width="4.48" height="4.28"/><polygon class="cls-3" points="339.73 14.34 336.62 13.41 335.39 11.02 336.71 8.42 338.86 7.71 337.99 11.02 339.73 14.34"/><polygon class="cls-3" points="364.93 30.78 361.76 27.75 364.93 24.72 368.1 27.75 364.93 30.78"/><rect class="cls-3" x="362.69" y="25.67" width="4.48" height="4.28"/><polygon class="cls-3" points="9.17 72.8 6 69.77 9.17 66.74 12.34 69.77 9.17 72.8"/><rect class="cls-3" x="6.93" y="67.69" width="4.48" height="4.28"/><polygon class="cls-3" points="28.43 56.36 25.33 55.43 24.1 53.04 25.42 50.44 27.57 49.73 26.7 53.04 28.43 56.36"/><polygon class="cls-3" points="98.11 72.8 94.94 69.77 98.11 66.74 101.28 69.77 98.11 72.8"/><rect class="cls-3" x="95.87" y="67.69" width="4.48" height="4.28"/><polygon class="cls-3" points="142.58 72.8 139.41 69.77 142.58 66.74 145.75 69.77 142.58 72.8"/><rect class="cls-3" x="140.34" y="67.69" width="4.48" height="4.28"/><polygon class="cls-3" points="187.05 72.8 183.88 69.77 187.05 66.74 190.22 69.77 187.05 72.8"/><rect class="cls-3" x="184.81" y="67.69" width="4.48" height="4.28"/><polygon class="cls-3" points="231.52 72.8 228.35 69.77 231.52 66.74 234.69 69.77 231.52 72.8"/><rect class="cls-3" x="229.28" y="67.69" width="4.48" height="4.28"/><polygon class="cls-3" points="250.78 56.36 247.68 55.43 246.45 53.04 247.77 50.44 249.92 49.73 249.05 53.04 250.78 56.36"/><polygon class="cls-3" points="275.99 72.8 272.82 69.77 275.99 66.74 279.16 69.77 275.99 72.8"/><rect class="cls-3" x="273.75" y="67.69" width="4.48" height="4.28"/><polygon class="cls-3" points="295.25 56.36 292.15 55.43 290.92 53.04 292.24 50.44 294.39 49.73 293.52 53.04 295.25 56.36"/><polygon class="cls-3" points="320.46 72.8 317.29 69.77 320.46 66.74 323.63 69.77 320.46 72.8"/><rect class="cls-3" x="318.22" y="67.69" width="4.48" height="4.28"/><polygon class="cls-3" points="339.73 56.36 336.62 55.43 335.39 53.04 336.71 50.44 338.86 49.73 337.99 53.04 339.73 56.36"/><polygon class="cls-3" points="364.93 72.8 361.76 69.77 364.93 66.74 368.1 69.77 364.93 72.8"/><rect class="cls-3" x="362.69" y="67.69" width="4.48" height="4.28"/><polygon class="cls-3" points="28.43 92.04 25.33 91.11 24.1 88.72 25.42 86.12 27.57 85.41 26.7 88.72 28.43 92.04"/><polygon class="cls-3" points="72.9 92.04 69.8 91.11 68.57 88.72 69.89 86.12 72.04 85.41 71.17 88.72 72.9 92.04"/><polygon class="cls-3" points="117.37 92.04 114.27 91.11 113.04 88.72 114.36 86.12 116.51 85.41 115.64 88.72 117.37 92.04"/><polygon class="cls-3" points="161.84 92.04 158.74 91.11 157.51 88.72 158.83 86.12 160.98 85.41 160.11 88.72 161.84 92.04"/><polygon class="cls-3" points="206.31 92.04 203.21 91.11 201.98 88.72 203.3 86.12 205.45 85.41 204.58 88.72 206.31 92.04"/><polygon class="cls-3" points="250.78 92.04 247.68 91.11 246.45 88.72 247.77 86.12 249.92 85.41 249.05 88.72 250.78 92.04"/><polygon class="cls-3" points="295.25 92.04 292.15 91.11 290.92 88.72 292.24 86.12 294.39 85.41 293.52 88.72 295.25 92.04"/><polygon class="cls-3" points="339.73 92.04 336.62 91.11 335.39 88.72 336.71 86.12 338.86 85.41 337.99 88.72 339.73 92.04"/><g class="cls-4"><rect class="cls-3" x="45.14" y="70.6" width="4.28" height="4.28" transform="translate(-37.59 54.74) rotate(-45)"/><rect class="cls-3" x="45.14" y="70.66" width="4.28" height="4.28"/><polygon class="cls-3" points="63.69 58.33 60.72 57.4 59.55 55.01 60.8 52.41 62.86 51.7 62.03 55.01 63.69 58.33"/></g><g class="cls-5"><path class="cls-6" d="M64,78.87C60.4,59.53,47,59.18,45.15,59.23s-15.26.3-18.85,19.64c0,0,1.8,6.42,19.07,6.42S64,78.87,64,78.87Z"/><path class="cls-7" d="M31.89,22.79s-7.4,1.72-9.28,2.21c0,0-.66.27,0,1.38s4.05,2.9,8.64,2.77Z"/><path class="cls-7" d="M58.38,22.79s7.39,1.72,9.28,2.21c0,0,.66.27,0,1.38s-4,2.9-8.64,2.77Z"/><path class="cls-8" d="M42.82,65.16a7.11,7.11,0,0,0,4.41,0c3.23-1.29,7.09-3.89,7.63-7.65s-21,0-21,0S36.45,63.5,42.82,65.16Z"/><path class="cls-7" d="M42.82,65.16S25.2,63.9,23.3,48.68,27,19.29,44.12,19.29L48,53.71,37.06,57.94A12.24,12.24,0,0,0,42.82,65.16Z"/><path class="cls-7" d="M53,57.94a12.28,12.28,0,0,1-5.76,7.22S64.85,63.9,66.74,48.68,63.09,19.29,45.93,19.29l-3.32,0,4,33.86Z"/><path class="cls-8" d="M30.68,41.13s-3.37-3.55-5.05,0a6,6,0,0,0,3.82,8.31Z"/><path class="cls-8" d="M58.84,41.13s3.37-3.55,5,0a6,6,0,0,1-3.82,8.31Z"/><path class="cls-9" d="M60.75,46.07c-.28-3.5-1-7.29-1-7.29C57.25,27.39,46,27.64,44.8,27.7s-12.45-.31-15,11.08c0,0-.7,3.79-1,7.29S24,60.15,44.06,60.64v0h1.46v0C65.57,60.15,61,49.49,60.75,46.07Z"/><path class="cls-10" d="M46.64,26.8s-.38-1.67-1.88-1.79A4.44,4.44,0,0,0,40,29.59c0,3.77,5.65,7.54,10.3,7.54A8.14,8.14,0,0,1,47.42,32C46.87,28.6,47.09,28.89,46.64,26.8Z"/><path class="cls-11" d="M38.21,43.22A1.08,1.08,0,1,1,37.14,42,1.14,1.14,0,0,1,38.21,43.22Z"/><path class="cls-11" d="M53.16,43.22A1.08,1.08,0,1,1,52.09,42,1.14,1.14,0,0,1,53.16,43.22Z"/><path class="cls-12" d="M52,48.82c-.94-3.21-3.55-2.88-4-2.6a5.47,5.47,0,0,1-1.6.39H43.76a5.59,5.59,0,0,1-1.61-.39c-.5-.28-3.1-.61-4,2.6s-.24,7.51,6.78,7.64h.31C52.21,56.33,52.9,52,52,48.82Z"/><path class="cls-13" d="M47.94,51a2.9,2.9,0,1,1-2.9-2.9A2.89,2.89,0,0,1,47.94,51Z"/></g></g></g></svg>