<svg xmlns="http://www.w3.org/2000/svg" viewBox="0 0 59.09 54.01"><defs><style>.cls-1,.cls-2{fill:none;stroke-linecap:round;stroke-linejoin:round;}.cls-1{stroke:#353535;stroke-width:1.79px;}.cls-2{stroke:#00a0c6;stroke-width:3.59px;}</style></defs><title>자산 5</title><g id="레이어_2" data-name="레이어 2"><g id="레이어_1-2" data-name="레이어 1"><path class="cls-1" d="M58.2,9.4c-3.17,7.26-17.44,1-20.6,8.3s11.11,13.48,7.95,20.75-17.44,1-20.6,8.31"/><path class="cls-1" d="M44.23,3.32c-3.16,7.26,11.11,13.47,8,20.73s-17.43,1.05-20.6,8.32,11.11,13.48,8,20.74"/><line class="cls-1" x1="38.19" y1="18.27" x2="51.36" y2="24.01"/><line class="cls-1" x1="31.83" y1="32.88" x2="45" y2="38.62"/><path class="cls-2" d="M35,7.87c-3.16,7.26-17.43,1-20.59,8.31s11.1,13.48,7.94,20.74S5,38,1.79,45.24"/><path class="cls-2" d="M21.07,1.79c-3.16,7.26,11.11,13.48,8,20.74s-17.43,1-20.59,8.31,11.1,13.48,7.94,20.75"/><line class="cls-2" x1="15.04" y1="16.75" x2="28.2" y2="22.48"/><line class="cls-2" x1="8.67" y1="31.36" x2="21.84" y2="37.09"/></g></g></svg>