<svg xmlns="http://www.w3.org/2000/svg" viewBox="0 0 49.24 44.86"><defs><style>.cls-1{fill:#fd448d;}.cls-2{fill:#f4bec0;}.cls-3{fill:#ffdeeb;}.cls-4{fill:#ff6ea9;}.cls-5{fill:#ffd4e6;}.cls-6{fill:#ca3671;}.cls-7{fill:#982955;}.cls-8{fill:#435465;}.cls-9{fill:#fff;}.cls-10{fill:#364351;}.cls-11{fill:#dcdddd;}</style></defs><title>자산 2</title><g id="레이어_2" data-name="레이어 2"><g id="레이어_1-2" data-name="레이어 1"><path class="cls-1" d="M11.07,22.68a1.43,1.43,0,0,1-1.42-1.42A8.24,8.24,0,0,0,1.42,13a1.42,1.42,0,0,1,0-2.84A11.08,11.08,0,0,1,12.48,21.26,1.42,1.42,0,0,1,11.07,22.68Z"/><polygon class="cls-1" points="28.06 21.18 28.06 21.18 28.06 21.18 28.06 21.18"/><polygon class="cls-1" points="28.06 21.18 28.06 21.18 28.06 21.18 28.06 21.18 28.06 21.18"/><polygon class="cls-1" points="28.06 21.18 28.06 21.18 28.06 21.18 28.06 21.18 28.06 21.18 28.06 21.18"/><polygon class="cls-1" points="28.06 21.18 28.06 21.18 28.06 21.18 28.06 21.18"/><polygon class="cls-1" points="28.06 21.18 28.06 21.18 28.06 21.18 28.06 21.18"/><polygon class="cls-1" points="28.06 21.18 28.06 21.18 28.06 21.18 28.06 21.18"/><polygon class="cls-1" points="28.06 21.18 28.06 21.18 28.06 21.18 28.06 21.18"/><polygon class="cls-1" points="28.06 21.18 28.06 21.18 28.06 21.18 28.06 21.18 28.06 21.18"/><polygon class="cls-1" points="28.06 21.18 28.06 21.18 28.06 21.18 28.06 21.18 28.06 21.18 28.06 21.18"/><polygon class="cls-1" points="28.06 21.18 28.06 21.18 28.06 21.18 28.06 21.18 28.06 21.18"/><polygon class="cls-1" points="28.06 21.18 28.06 21.18 28.06 21.18 28.06 21.18 28.06 21.18 28.06 21.18"/><polygon class="cls-1" points="28.06 21.18 28.06 21.18 28.06 21.18 28.06 21.18"/><path class="cls-2" d="M28.06,21.18,33.8.79a1.82,1.82,0,0,0-.7,0A6.84,6.84,0,0,1,28.94.25,2.24,2.24,0,0,0,28.06,0V21.18Z"/><polygon class="cls-1" points="28.06 21.18 28.06 21.18 28.06 21.18 28.06 21.18 28.06 21.18 28.06 21.18"/><path class="cls-2" d="M28.06,21.18H49.24a1.88,1.88,0,0,0-.19-.72,6.11,6.11,0,0,1-.48-3.94,1.2,1.2,0,0,0,0-.56L28.06,21.18Z"/><path class="cls-3" d="M48.59,16a1.92,1.92,0,0,0-.35-.68,12.3,12.3,0,0,1-2.31-5,2.7,2.7,0,0,0-.37-1.06L28.06,21.18Z"/><path class="cls-3" d="M40.43,4a2.54,2.54,0,0,0-.89-.37,12.89,12.89,0,0,1-5.09-2.46A2.09,2.09,0,0,0,33.8.79L28.06,21.18Z"/><path class="cls-2" d="M28.06,21.18h0L45.56,9.25a2.81,2.81,0,0,0-1-.8,9.73,9.73,0,0,1-3.5-3.62A2.78,2.78,0,0,0,40.43,4L28.06,21.18Z"/><path class="cls-4" d="M28.44,21.17H7.63a18.89,18.89,0,0,0,.23,2.93H28.44Z"/><path class="cls-1" d="M28.44,21.17V24.1H49a18.89,18.89,0,0,0,.22-2.93Z"/><path class="cls-5" d="M28.44,40.06h1.91A18.9,18.9,0,0,0,49,24.1H28.44Z"/><path class="cls-3" d="M7.86,24.1a18.88,18.88,0,0,0,18.66,16h1.92v-16Z"/><path class="cls-6" d="M26.13,21.31a2.31,2.31,0,0,0,2.31,2.31V19A2.3,2.3,0,0,0,26.13,21.31Z"/><path class="cls-7" d="M28.44,19v4.62a2.31,2.31,0,0,0,0-4.62Z"/><circle class="cls-8" cx="18.77" cy="37.83" r="7.03"/><path class="cls-9" d="M21.78,37.83a3,3,0,1,1-3-3A3,3,0,0,1,21.78,37.83Z"/><circle class="cls-10" cx="39.05" cy="37.83" r="7.03"/><path class="cls-11" d="M42.06,37.83a3,3,0,1,1-3-3A3,3,0,0,1,42.06,37.83Z"/></g></g></svg>