<svg xmlns="http://www.w3.org/2000/svg" viewBox="0 0 50.71 78.49"><defs><style>.cls-1{fill:#5f3117;}.cls-1,.cls-10,.cls-11,.cls-12,.cls-13,.cls-2,.cls-3,.cls-4,.cls-5,.cls-6,.cls-7,.cls-8,.cls-9{fill-rule:evenodd;}.cls-2{fill:#f9d3c2;}.cls-3{fill:#8ca7d7;}.cls-4{fill:#fff;}.cls-5{fill:#fceee6;}.cls-6{fill:#864422;}.cls-7{fill:#a55f28;}.cls-8{fill:#733e1e;}.cls-9{fill:#d17f42;}.cls-10{fill:#4a506f;}.cls-11{fill:#323333;}.cls-12{fill:#989898;}.cls-13{fill:#666;}</style></defs><title>자산 3</title><g id="레이어_2" data-name="레이어 2"><g id="레이어_1-2" data-name="레이어 1"><path class="cls-1" d="M36,9.19a8.85,8.85,0,0,1-2.68,6.5,8.86,8.86,0,0,1-6.52,2.7,8.83,8.83,0,0,1-6.49-2.7,8.83,8.83,0,0,1-2.7-6.5,8.8,8.8,0,0,1,2.7-6.49A8.83,8.83,0,0,1,26.8,0a8.86,8.86,0,0,1,6.52,2.7A8.82,8.82,0,0,1,36,9.19Z"/><polygon class="cls-2" points="31.22 56.01 19.46 56.01 20.48 41.99 30.21 41.99 31.22 56.01"/><path class="cls-3" d="M19.69,49.05h.06l5.62,4.22,5.72-4.22Q53,49.73,50.43,78.49H.28Q-2.34,49.71,19.69,49.05Z"/><polygon class="cls-4" points="14.67 49.8 18.65 47.72 25.5 52.96 23.09 59.81 14.67 49.8"/><polygon class="cls-4" points="32.04 47.72 36.02 49.8 27.6 59.81 25.19 52.96 32.04 47.72"/><path class="cls-5" d="M41.17,32.14a15.54,15.54,0,0,1-2.28,6.72,17.42,17.42,0,0,1-2.3,2.85,15.07,15.07,0,0,1-11.25,4.82,15.19,15.19,0,0,1-11.29-4.82,16.09,16.09,0,0,1-4.57-9.57c-.06-.64-.09-1.29-.09-2a16.07,16.07,0,0,1,4.66-11.6,15.28,15.28,0,0,1,11.29-4.76,15.16,15.16,0,0,1,11.25,4.76,16,16,0,0,1,4.69,11.6A18,18,0,0,1,41.17,32.14Z"/><path class="cls-2" d="M11.8,38.86a3.48,3.48,0,0,1-2.59-.22,3.52,3.52,0,0,1-1.77-2.06,3.61,3.61,0,0,1,.13-2.7,3.13,3.13,0,0,1,1.91-1.74A15.29,15.29,0,0,0,11.8,38.86Zm27.09,0a15.54,15.54,0,0,0,2.28-6.72,3.09,3.09,0,0,1,1.92,1.74,3.48,3.48,0,0,1,.16,2.7,3.51,3.51,0,0,1-4.36,2.28Z"/><path class="cls-6" d="M35.56,13a6.21,6.21,0,0,1,3.29,1.77,15.32,15.32,0,0,1,4.68,11.33c0,.39,0,.77,0,1.15a19.06,19.06,0,0,1-.29,2.44,1.38,1.38,0,0,1-.06.26l0,.22a15.51,15.51,0,0,1-2.94,6Q42,26.57,36,21.4a13.67,13.67,0,0,1-3.58,2.23,21.22,21.22,0,0,1-5.91,1.63,15,15,0,0,0,1.86-1.43,20,20,0,0,0,3.21-3.67q-17.43,1.69-21,7.73a22.39,22.39,0,0,0-.42,7.43,29.08,29.08,0,0,1-1.9-6.17A20.5,20.5,0,0,1,8,26.85a17.22,17.22,0,0,1,1.41-8.24,14.79,14.79,0,0,1,9-8.75q7.8-2.7,14.19.24A8.29,8.29,0,0,1,35.56,13Z"/><path class="cls-7" d="M19.05,28.78a1.42,1.42,0,0,1,.42,1,1.87,1.87,0,0,1,0,.34,1.45,1.45,0,0,0-.39-.73A1.42,1.42,0,0,0,18,29a1.46,1.46,0,0,0-1.44,1.15c0-.11,0-.22,0-.34a1.47,1.47,0,0,1,2.5-1Z"/><path class="cls-7" d="M33.74,29.4a1.4,1.4,0,0,0-1-.42,1.44,1.44,0,0,0-1,.42,1.39,1.39,0,0,0-.4.73,1.88,1.88,0,0,1,0-.34,1.42,1.42,0,0,1,.42-1,1.44,1.44,0,0,1,1-.42,1.43,1.43,0,0,1,1.46,1.43,1.88,1.88,0,0,1,0,.34A1.39,1.39,0,0,0,33.74,29.4Z"/><path class="cls-8" d="M34.12,34.26a1.29,1.29,0,0,1-.42,1,1.36,1.36,0,0,1-1,.42,1.38,1.38,0,0,1-1-.42,1.29,1.29,0,0,1-.42-1,1.43,1.43,0,0,1,1.43-1.44,1.36,1.36,0,0,1,1,.42A1.39,1.39,0,0,1,34.12,34.26Z"/><path class="cls-8" d="M19,33.24a1.39,1.39,0,0,1,.42,1,1.29,1.29,0,0,1-.42,1,1.33,1.33,0,0,1-1,.42,1.38,1.38,0,0,1-1-.42,1.31,1.31,0,0,1-.4-1,1.41,1.41,0,0,1,.4-1,1.38,1.38,0,0,1,1-.42A1.33,1.33,0,0,1,19,33.24Z"/><path class="cls-9" d="M19.52,39.83a.4.4,0,0,1,0-.34.45.45,0,0,1,.24-.25.5.5,0,0,1,.34,0,.45.45,0,0,1,.24.23,4.75,4.75,0,0,0,1.21,1.66,5.42,5.42,0,0,0,2.25,1.23h0a5.93,5.93,0,0,0,3.09,0h0a5.16,5.16,0,0,0,2.2-1.22h0a4.47,4.47,0,0,0,1.23-1.66.45.45,0,0,1,.24-.23.5.5,0,0,1,.34,0,.45.45,0,0,1,.24.25.4.4,0,0,1,0,.34,5.35,5.35,0,0,1-1.46,2v0a6.11,6.11,0,0,1-2.57,1.42h0a6.65,6.65,0,0,1-1.81.23,6.16,6.16,0,0,1-1.77-.24h0A6.29,6.29,0,0,1,21,41.8,5.55,5.55,0,0,1,19.52,39.83Z"/><path class="cls-4" d="M26.49,63.61a1.34,1.34,0,0,1-1,.44,1.44,1.44,0,0,1-1.07-.44,1.42,1.42,0,0,1-.42-1,1.44,1.44,0,0,1,1.49-1.48,1.4,1.4,0,0,1,1,.42,1.44,1.44,0,0,1,.45,1.06A1.37,1.37,0,0,1,26.49,63.61ZM24,68.32a1.48,1.48,0,0,1,.42-1.06,1.5,1.5,0,0,1,1.07-.42,1.4,1.4,0,0,1,1,.42,1.43,1.43,0,0,1,.45,1.06,1.52,1.52,0,0,1-1.48,1.48,1.48,1.48,0,0,1-1.07-.44A1.42,1.42,0,0,1,24,68.32ZM24.39,73a1.5,1.5,0,0,1,1.07-.42,1.4,1.4,0,0,1,1,.42,1.44,1.44,0,0,1,.45,1.06,1.54,1.54,0,0,1-1.48,1.49,1.45,1.45,0,0,1-1.07-.45,1.4,1.4,0,0,1-.42-1A1.5,1.5,0,0,1,24.39,73Z"/><path class="cls-10" d="M8.37,26.85l0,0,.07,0Z"/><path class="cls-11" d="M7.15,31.69a4.37,4.37,0,0,0-.75,1.53H6.23V30.37a1.75,1.75,0,0,1,.39-1.11L8,27.3c0,.45.1.92.18,1.39-.06.09-.13.19-.2.31l-.67.9a1.07,1.07,0,0,0-.2.65Z"/><path class="cls-12" d="M6.23,33.22H6.4a4.37,4.37,0,0,1,.75-1.53,1.49,1.49,0,0,1,.27-.33.84.84,0,0,1,.13-.17,4.48,4.48,0,0,1,1.51-1,3.36,3.36,0,0,1,.9-.27,2.13,2.13,0,0,0,0,.27V39a1.66,1.66,0,0,0,0,.24,4.7,4.7,0,0,1-2.41-1.32,5,5,0,0,1-1-1.71.6.6,0,0,1-.2,0,1.41,1.41,0,0,1-1-.47,1.56,1.56,0,0,1-.4-1v-.09a1.47,1.47,0,0,1,.4-1,1.21,1.21,0,0,1,.38-.27A1,1,0,0,1,6.23,33.22Z"/><path class="cls-13" d="M10,39.23a1.66,1.66,0,0,1,0-.24V30.17a2.13,2.13,0,0,1,0-.27l.07-.11a1.24,1.24,0,0,1,.2-.31.9.9,0,0,1,.66-.28.87.87,0,0,1,.68.28.81.81,0,0,1,.27.47,1.27,1.27,0,0,1,0,.22V39a1.27,1.27,0,0,1,0,.22.87.87,0,0,1-.27.46.9.9,0,0,1-.68.27.93.93,0,0,1-.66-.27A1.34,1.34,0,0,1,10,39.23Z"/><path class="cls-11" d="M44.46,33.22h-.17a4.51,4.51,0,0,0-.73-1.53V30.55a1,1,0,0,0-.22-.65l-.14-.17v0c.08-.46.14-.91.2-1.35l.67.9a1.75,1.75,0,0,1,.39,1.11Z"/><path class="cls-12" d="M44.46,33.22a1.15,1.15,0,0,1,.56.15,1.29,1.29,0,0,1,.37.27,1.55,1.55,0,0,1,.38,1v.09a1.6,1.6,0,0,1-.38,1,1.47,1.47,0,0,1-1,.47l-.19,0a5,5,0,0,1-1,1.71,4.7,4.7,0,0,1-2.41,1.32,1.66,1.66,0,0,0,0-.24V30.17a2.13,2.13,0,0,0,0-.27,3.36,3.36,0,0,1,.9.27,4.48,4.48,0,0,1,1.51,1,.84.84,0,0,1,.13.17,1.9,1.9,0,0,1,.29.33,4.51,4.51,0,0,1,.73,1.53h.17Z"/><path class="cls-13" d="M40.73,39.23a1.48,1.48,0,0,1-.25.44,1,1,0,0,1-.68.27,1,1,0,0,1-.69-.27.92.92,0,0,1-.26-.46.72.72,0,0,1,0-.22V30.17a.72.72,0,0,1,0-.22.85.85,0,0,1,.26-.47,1,1,0,0,1,.69-.28,1,1,0,0,1,.68.28,2.74,2.74,0,0,1,.23.31.65.65,0,0,1,0,.11,2.13,2.13,0,0,1,0,.27V39A1.66,1.66,0,0,1,40.73,39.23Z"/><path class="cls-11" d="M42.39,36.65c0,1,0,2-.09,3a6,6,0,0,1-1.48,2.81l-.53.58a12.05,12.05,0,0,1-.95.79A14.94,14.94,0,0,1,34.58,46a1.4,1.4,0,0,1-.39.82,1.38,1.38,0,0,1-1,.42,1.4,1.4,0,0,1-1.44-1.41,1.39,1.39,0,0,1,.4-1,1.42,1.42,0,0,1,1-.42,1.38,1.38,0,0,1,1,.42,1.69,1.69,0,0,1,.28.38,9.82,9.82,0,0,0,4-1.62,6.87,6.87,0,0,0,1.48-1.37,3.62,3.62,0,0,0,.36-.42,6.36,6.36,0,0,0,1.17-2.41c.06-1,.08-1.88.06-2.69Z"/></g></g></svg>