<svg xmlns="http://www.w3.org/2000/svg" viewBox="0 0 41.98 50.98"><defs><style>.cls-1,.cls-4{fill:none;}.cls-1,.cls-3,.cls-4{stroke:#353535;}.cls-1,.cls-2,.cls-3,.cls-4{stroke-linecap:round;stroke-linejoin:round;}.cls-1,.cls-2,.cls-3{stroke-width:1.48px;}.cls-2{fill:#00a0c6;stroke:#00a0c6;}.cls-3{fill:#fff;}.cls-4{stroke-width:2.95px;}</style></defs><title>자산 7</title><g id="레이어_2" data-name="레이어 2"><g id="레이어_1-2" data-name="레이어 1"><path class="cls-1" d="M31.85,33.59V11.92H6.14V33.59a10.25,10.25,0,0,0,8.18,10.24v2.58H24.56V43.58A10.22,10.22,0,0,0,31.85,33.59Z"/><path class="cls-2" d="M17.14,43.6v-2L15,41.11C8.92,39.58,8.93,34.31,9,33.72V26.44H29v7.3A7.32,7.32,0,0,1,23.7,40.9l-1.95.63V43.6Z"/><rect class="cls-3" x="11" y="18.7" width="15.99" height="14.29"/><line class="cls-1" x1="19" y1="46.41" x2="19" y2="49.51"/><line class="cls-1" x1="18.72" y1="11.92" x2="18.72" y2="1.48"/><polyline class="cls-4" points="1.48 1.48 40.51 1.48 40.51 49.51"/><line class="cls-1" x1="14.14" y1="25.84" x2="24.5" y2="25.84"/></g></g></svg>