<svg xmlns="http://www.w3.org/2000/svg" viewBox="0 0 53.59 48.56"><defs><style>.cls-1,.cls-2,.cls-5{fill:none;}.cls-1,.cls-2{stroke:#353535;}.cls-1,.cls-2,.cls-3,.cls-4,.cls-5{stroke-linecap:round;stroke-linejoin:round;}.cls-1,.cls-3,.cls-4,.cls-5{stroke-width:1.48px;}.cls-2{stroke-width:2.97px;}.cls-3{fill:#00a0c6;}.cls-3,.cls-4{stroke:#00a0c6;}.cls-4{fill:#fff;}.cls-5{stroke:#fff;}</style></defs><title>자산 10</title><g id="레이어_2" data-name="레이어 2"><g id="레이어_1-2" data-name="레이어 1"><path class="cls-1" d="M37.44,47.82H.74V39.18H4.3a2.34,2.34,0,1,0,0-1.6H.74v-7.8H4.3a2.34,2.34,0,1,0,0-1.6H.74v-7.8H4.3a2.34,2.34,0,1,0,0-1.6H.74V11H4.3a2.34,2.34,0,1,0,0-1.61H.74V.74h36.7Z"/><line class="cls-2" x1="16.02" y1="9.06" x2="29.59" y2="9.06"/><line class="cls-2" x1="16.02" y1="16.58" x2="29.59" y2="16.58"/><line class="cls-2" x1="16.02" y1="24.09" x2="29.59" y2="24.09"/><line class="cls-2" x1="16.02" y1="31.61" x2="29.59" y2="31.61"/><line class="cls-2" x1="16.02" y1="39.13" x2="29.59" y2="39.13"/><polygon class="cls-3" points="52.85 32.33 47.73 24.05 26.65 36.69 31.76 44.97 52.85 32.33"/><polygon class="cls-4" points="31.76 44.97 26.65 36.69 23.73 44.1 31.76 44.97"/><line class="cls-5" x1="42.09" y1="24.05" x2="50.12" y2="37.56"/></g></g></svg>