<svg xmlns="http://www.w3.org/2000/svg" viewBox="0 0 43.63 56.71"><defs><style>.cls-1{fill:#00a0c6;}.cls-1,.cls-4{stroke:#00a0c6;}.cls-1,.cls-2,.cls-3,.cls-4,.cls-5{stroke-linecap:round;stroke-linejoin:round;stroke-width:1.54px;}.cls-2,.cls-4,.cls-5{fill:none;}.cls-2,.cls-3{stroke:#353535;}.cls-3{fill:#353535;}.cls-5{stroke:#fff;}</style></defs><title>자산 11</title><g id="레이어_2" data-name="레이어 2"><g id="레이어_1-2" data-name="레이어 1"><path class="cls-1" d="M24.15,37.23H19.48A18.71,18.71,0,0,0,.77,55.94H42.86A18.71,18.71,0,0,0,24.15,37.23Z"/><path class="cls-2" d="M24,5.29c-3.88,6-11.1,7.43-16.7,7.58a20.08,20.08,0,0,0-.8,5.59c0,9.78,6.88,17.7,15.36,17.7s15.37-7.92,15.37-17.7a20.7,20.7,0,0,0-.29-3.37A19.93,19.93,0,0,1,24,5.29Z"/><path class="cls-3" d="M21.81.77C15,.77,9.28,5.84,7.25,12.87c5.6-.15,12.82-1.63,16.7-7.58a19.93,19.93,0,0,0,12.94,9.8C35.52,6.93,29.3.77,21.81.77Z"/><path class="cls-1" d="M16.44,18.38a.69.69,0,0,1-1.38,0,.69.69,0,0,1,1.38,0Z"/><path class="cls-1" d="M28.44,18.38a.68.68,0,0,1-.68.69.69.69,0,0,1-.69-.69.68.68,0,0,1,.69-.68A.67.67,0,0,1,28.44,18.38Z"/><path class="cls-2" d="M37.56,18.91a2.89,2.89,0,1,1,0,5.77,3,3,0,0,1-1.28-.27"/><path class="cls-2" d="M5.93,18.91a2.89,2.89,0,1,0,0,5.77,3.27,3.27,0,0,0,1.4-.32"/><line class="cls-4" x1="21.4" y1="21.8" x2="21.4" y2="24.68"/><path class="cls-4" d="M18.16,27.93a4.22,4.22,0,0,0,6.17,0"/><path class="cls-2" d="M15,37.23v3a7.43,7.43,0,0,0,7.43,7.43h0a7.44,7.44,0,0,0,7.44-7.43v-3"/><path class="cls-2" d="M22.45,48.09v2.2a5.47,5.47,0,0,0,5.46,5.46h0a5.46,5.46,0,0,0,5.45-5.46v-2.2"/><circle class="cls-3" cx="33.36" cy="48.09" r="2.92"/><path class="cls-1" d="M32.15,7.05A6.28,6.28,0,1,1,25.87.78,6.28,6.28,0,0,1,32.15,7.05Z"/><line class="cls-4" x1="6.45" y1="11.02" x2="36.28" y2="11.02"/><circle class="cls-5" cx="25.87" cy="7.05" r="2.57"/></g></g></svg>