<svg xmlns="http://www.w3.org/2000/svg" viewBox="0 0 59.21 48.64"><defs><style>.cls-1{fill:#00a0c6;stroke:#00a0c6;}.cls-1,.cls-2{stroke-linecap:round;stroke-linejoin:round;stroke-width:1.75px;}.cls-2{fill:none;stroke:#353535;}</style></defs><title>자산 6</title><g id="레이어_2" data-name="레이어 2"><g id="레이어_1-2" data-name="레이어 1"><path class="cls-1" d="M52,23.55a14.9,14.9,0,0,0,2.62-8.45C54.59,7.24,48.73.88,41.5.88A13,13,0,0,0,29.74,9,13,13,0,0,0,18,.88C10.74.88,4.88,7.24,4.88,15.1a14.89,14.89,0,0,0,2.63,8.46h0l.21.23c.66.92,22,24,22,24s21.38-23,22-24l.22-.23Z"/><polyline class="cls-2" points="0.88 20.75 15.2 20.75 19.58 29.98 27.11 14.11 34.65 29.98 42.18 14.11 45.58 21.25 58.34 21.25"/></g></g></svg>