<svg xmlns="http://www.w3.org/2000/svg" viewBox="0 0 48.08 38"><defs><style>.cls-1{fill:#fff;}.cls-2,.cls-3{fill:#353535;}.cls-3{stroke:#353535;}.cls-3,.cls-4{stroke-linecap:round;stroke-linejoin:round;stroke-width:0.61px;}.cls-4,.cls-5{fill:#00a0c6;}.cls-4{stroke:#00a0c6;}</style></defs><title>자산 12</title><g id="레이어_2" data-name="레이어 2"><g id="레이어_1-2" data-name="레이어 1"><path class="cls-1" d="M1,5.75V33.93A3.06,3.06,0,0,0,4.07,37H35.22a3.06,3.06,0,0,0,3.06-3.06V5.75Z"/><path class="cls-2" d="M35.22,38H4.07A4.08,4.08,0,0,1,0,33.93V5.75a1,1,0,0,1,1-1H38.28a1,1,0,0,1,1,1V33.93A4.07,4.07,0,0,1,35.22,38ZM2,6.76V33.93a2.05,2.05,0,0,0,2.05,2H35.22a2.06,2.06,0,0,0,2.06-2V6.76Z"/><path class="cls-1" d="M11.26,8.27A1.32,1.32,0,0,1,9.94,9.58h0A1.31,1.31,0,0,1,8.63,8.27V3.88A1.31,1.31,0,0,1,9.94,2.57h0a1.32,1.32,0,0,1,1.32,1.31Z"/><path class="cls-2" d="M9.94,10.59A2.32,2.32,0,0,1,7.62,8.27V3.88a2.33,2.33,0,0,1,4.65,0V8.27A2.33,2.33,0,0,1,9.94,10.59Zm0-7a.3.3,0,0,0-.31.3V8.27a.31.31,0,0,0,.62,0V3.88A.3.3,0,0,0,9.94,3.58Z"/><path class="cls-1" d="M30.67,8.27a1.32,1.32,0,0,1-1.32,1.31h0A1.31,1.31,0,0,1,28,8.27V3.88a1.31,1.31,0,0,1,1.31-1.31h0a1.32,1.32,0,0,1,1.32,1.31Z"/><path class="cls-3" d="M29.35,10.59A2.32,2.32,0,0,1,27,8.27V3.88a2.33,2.33,0,0,1,4.65,0V8.27A2.33,2.33,0,0,1,29.35,10.59Zm0-7a.29.29,0,0,0-.3.3V8.27a.29.29,0,0,0,.3.3.3.3,0,0,0,.31-.3V3.88A.3.3,0,0,0,29.35,3.58Z"/><rect class="cls-1" x="4.56" y="16.47" width="4.26" height="4.26"/><path class="cls-2" d="M8.81,21.74H4.56a1,1,0,0,1-1-1V16.47a1,1,0,0,1,1-1H8.81a1,1,0,0,1,1,1v4.26A1,1,0,0,1,8.81,21.74Zm-3.25-2H7.8V17.48H5.56Z"/><rect class="cls-1" x="13.2" y="16.47" width="4.26" height="4.26"/><path class="cls-2" d="M17.45,21.74H13.2a1,1,0,0,1-1-1V16.47a1,1,0,0,1,1-1h4.25a1,1,0,0,1,1,1v4.26A1,1,0,0,1,17.45,21.74Zm-3.24-2h2.24V17.48H14.21Z"/><rect class="cls-1" x="21.84" y="16.47" width="4.26" height="4.26"/><path class="cls-2" d="M26.1,21.74H21.84a1,1,0,0,1-1-1V16.47a1,1,0,0,1,1-1H26.1a1,1,0,0,1,1,1v4.26A1,1,0,0,1,26.1,21.74Zm-3.25-2h2.24V17.48H22.85Z"/><rect class="cls-1" x="30.48" y="16.47" width="4.26" height="4.26"/><path class="cls-2" d="M34.74,21.74H30.48a1,1,0,0,1-1-1V16.47a1,1,0,0,1,1-1h4.26a1,1,0,0,1,1,1v4.26A1,1,0,0,1,34.74,21.74Zm-3.25-2h2.24V17.48H31.49Z"/><rect class="cls-1" x="4.56" y="24.99" width="4.26" height="4.26"/><path class="cls-2" d="M8.81,30.25H4.56a1,1,0,0,1-1-1V25a1,1,0,0,1,1-1H8.81a1,1,0,0,1,1,1v4.25A1,1,0,0,1,8.81,30.25Zm-3.25-2H7.8V26H5.56Z"/><rect class="cls-4" x="13.2" y="24.99" width="4.26" height="4.26"/><path class="cls-5" d="M17.45,30.25H13.2a1,1,0,0,1-1-1V25a1,1,0,0,1,1-1h4.25a1,1,0,0,1,1,1v4.25A1,1,0,0,1,17.45,30.25Zm-3.24-2h2.24V26H14.21Z"/><rect class="cls-4" x="21.84" y="24.99" width="4.26" height="4.26"/><path class="cls-5" d="M26.1,30.25H21.84a1,1,0,0,1-1-1V25a1,1,0,0,1,1-1H26.1a1,1,0,0,1,1,1v4.25A1,1,0,0,1,26.1,30.25Zm-3.25-2h2.24V26H22.85Z"/><rect class="cls-4" x="30.48" y="24.99" width="4.26" height="4.26"/><path class="cls-5" d="M34.74,30.25H30.48a1,1,0,0,1-1-1V25a1,1,0,0,1,1-1h4.26a1,1,0,0,1,1,1v4.25A1,1,0,0,1,34.74,30.25Zm-3.25-2h2.24V26H31.49Z"/><path class="cls-4" d="M38.91,1.32H21.72a7.86,7.86,0,1,0,0,15.71H33.51v5.08L38.58,17h.33a7.86,7.86,0,1,0,0-15.71Z"/><path class="cls-4" d="M33.51,23.11a1,1,0,0,1-.39-.07,1,1,0,0,1-.62-.93V18H21.72a8.87,8.87,0,1,1,0-17.73H38.91A8.87,8.87,0,0,1,39,18l-4.78,4.78A1,1,0,0,1,33.51,23.11ZM21.72,2.33a6.85,6.85,0,1,0,0,13.69H33.51a1,1,0,0,1,1,1v2.64l3.36-3.35a1,1,0,0,1,.71-.3h.33a6.85,6.85,0,1,0,0-13.69Z"/><path class="cls-1" d="M24.68,9.21a2.13,2.13,0,1,0-2.13,2.13A2.13,2.13,0,0,0,24.68,9.21Z"/><path class="cls-1" d="M32.44,9.21a2.13,2.13,0,1,0-2.13,2.13A2.13,2.13,0,0,0,32.44,9.21Z"/><path class="cls-1" d="M40.21,9.21a2.13,2.13,0,1,0-2.13,2.13A2.13,2.13,0,0,0,40.21,9.21Z"/></g></g></svg>