<svg xmlns="http://www.w3.org/2000/svg" xmlns:xlink="http://www.w3.org/1999/xlink" viewBox="0 0 375 81.78"><defs><style>.cls-1,.cls-3{fill:none;}.cls-2{fill:#6fa6d8;}.cls-3{stroke:#fff;stroke-miterlimit:10;stroke-width:0.3px;}.cls-4{opacity:0.5;}.cls-5{clip-path:url(#clip-path);}.cls-6{fill:#db7373;}.cls-7{fill:#ed8080;}.cls-8{fill:#dea072;}.cls-9{fill:#edc090;}.cls-10{fill:#513419;}.cls-11{fill:#3a312d;}.cls-12{fill:#db7c2e;}.cls-13{fill:#e58650;}</style><clipPath id="clip-path"><rect class="cls-1" x="8" y="8.7" width="72.5" height="66"/></clipPath></defs><title>자산 2</title><g id="레이어_2" data-name="레이어 2"><g id="레이어_1-2" data-name="레이어 1"><rect class="cls-2" width="375" height="74.7"/><polygon class="cls-3" points="139.21 12.7 136.24 11.77 135.07 9.38 136.33 6.78 138.39 6.07 137.55 9.38 139.21 12.7"/><polygon class="cls-3" points="176.97 12.7 174.01 11.77 172.84 9.38 174.09 6.78 176.15 6.07 175.31 9.38 176.97 12.7"/><g class="cls-4"><rect class="cls-3" x="7.37" y="24.97" width="4.28" height="4.28" transform="translate(-16.38 14.67) rotate(-45)"/><rect class="cls-3" x="7.37" y="25.03" width="4.28" height="4.28"/><polygon class="cls-3" points="25.92 12.7 22.96 11.77 21.79 9.38 23.04 6.78 25.1 6.07 24.27 9.38 25.92 12.7"/></g><rect class="cls-3" x="7.37" y="62.64" width="4.28" height="4.28" transform="translate(-43.02 25.7) rotate(-45)"/><rect class="cls-3" x="7.37" y="62.7" width="4.28" height="4.28"/><g class="cls-4"><rect class="cls-3" x="45.14" y="62.64" width="4.28" height="4.28" transform="translate(-31.96 52.4) rotate(-45)"/><rect class="cls-3" x="45.14" y="62.7" width="4.28" height="4.28"/><polygon class="cls-3" points="63.69 50.37 60.72 49.44 59.55 47.05 60.8 44.45 62.86 43.74 62.03 47.05 63.69 50.37"/></g><rect class="cls-3" x="82.9" y="62.64" width="4.28" height="4.28" transform="translate(-20.9 79.11) rotate(-45)"/><rect class="cls-3" x="82.9" y="62.7" width="4.28" height="4.28"/><rect class="cls-3" x="120.66" y="62.64" width="4.28" height="4.28" transform="translate(-9.84 105.81) rotate(-45)"/><rect class="cls-3" x="120.66" y="62.7" width="4.28" height="4.28"/><rect class="cls-3" x="158.42" y="62.64" width="4.28" height="4.28" transform="translate(1.22 132.51) rotate(-45)"/><rect class="cls-3" x="158.42" y="62.7" width="4.28" height="4.28"/><rect class="cls-3" x="196.19" y="62.64" width="4.28" height="4.28" transform="translate(12.28 159.21) rotate(-45)"/><rect class="cls-3" x="196.19" y="62.7" width="4.28" height="4.28"/><g class="cls-4"><rect class="cls-3" x="233.95" y="62.64" width="4.28" height="4.28" transform="translate(23.36 185.95) rotate(-45.01)"/><rect class="cls-3" x="233.95" y="62.7" width="4.28" height="4.28"/><polygon class="cls-3" points="252.5 50.37 249.53 49.44 248.36 47.05 249.62 44.45 251.67 43.74 250.84 47.05 252.5 50.37"/></g><g class="cls-4"><rect class="cls-3" x="271.71" y="62.64" width="4.28" height="4.28" transform="translate(34.43 212.66) rotate(-45.01)"/><rect class="cls-3" x="271.71" y="62.7" width="4.28" height="4.28"/><polygon class="cls-3" points="290.26 50.37 287.29 49.44 286.12 47.05 287.38 44.45 289.44 43.74 288.6 47.05 290.26 50.37"/></g><g class="cls-4"><rect class="cls-3" x="309.47" y="62.64" width="4.28" height="4.28" transform="translate(45.49 239.36) rotate(-45.01)"/><rect class="cls-3" x="309.47" y="62.7" width="4.28" height="4.28"/><polygon class="cls-3" points="328.02 50.37 325.06 49.44 323.88 47.05 325.14 44.45 327.2 43.74 326.36 47.05 328.02 50.37"/></g><g class="cls-4"><rect class="cls-3" x="347.23" y="62.64" width="4.28" height="4.28" transform="translate(56.56 266.07) rotate(-45.01)"/><rect class="cls-3" x="347.23" y="62.7" width="4.28" height="4.28"/><polygon class="cls-3" points="365.78 50.37 362.82 49.44 361.64 47.05 362.9 44.45 364.96 43.74 364.12 47.05 365.78 50.37"/></g><g class="cls-4"><rect class="cls-3" x="45.14" y="24.97" width="4.28" height="4.28" transform="translate(-5.32 41.37) rotate(-45)"/><rect class="cls-3" x="45.14" y="25.03" width="4.28" height="4.28"/><polygon class="cls-3" points="63.69 12.7 60.72 11.77 59.55 9.38 60.8 6.78 62.86 6.07 62.03 9.38 63.69 12.7"/></g><polygon class="cls-3" points="101.45 12.7 98.48 11.77 97.31 9.38 98.57 6.78 100.63 6.07 99.79 9.38 101.45 12.7"/><polygon class="cls-3" points="214.74 12.7 211.77 11.77 210.6 9.38 211.85 6.78 213.91 6.07 213.08 9.38 214.74 12.7"/><g class="cls-4"><rect class="cls-3" x="233.95" y="24.97" width="4.28" height="4.28" transform="translate(50 174.91) rotate(-45.01)"/><rect class="cls-3" x="233.95" y="25.03" width="4.28" height="4.28"/><polygon class="cls-3" points="252.5 12.7 249.53 11.77 248.36 9.38 249.62 6.78 251.67 6.07 250.84 9.38 252.5 12.7"/></g><g class="cls-4"><rect class="cls-3" x="271.71" y="24.97" width="4.28" height="4.28" transform="translate(61.07 201.61) rotate(-45.01)"/><rect class="cls-3" x="271.71" y="25.03" width="4.28" height="4.28"/><polygon class="cls-3" points="290.26 12.7 287.29 11.77 286.12 9.38 287.38 6.78 289.44 6.07 288.6 9.38 290.26 12.7"/></g><g class="cls-4"><rect class="cls-3" x="309.47" y="24.97" width="4.28" height="4.28" transform="translate(72.13 228.32) rotate(-45.01)"/><rect class="cls-3" x="309.47" y="25.03" width="4.28" height="4.28"/><polygon class="cls-3" points="328.02 12.7 325.06 11.77 323.88 9.38 325.14 6.78 327.2 6.07 326.36 9.38 328.02 12.7"/></g><g class="cls-4"><rect class="cls-3" x="347.23" y="24.97" width="4.28" height="4.28" transform="translate(83.19 255.03) rotate(-45.01)"/><rect class="cls-3" x="347.23" y="25.03" width="4.28" height="4.28"/><polygon class="cls-3" points="365.78 12.7 362.82 11.77 361.64 9.38 362.9 6.78 364.96 6.07 364.12 9.38 365.78 12.7"/></g><g class="cls-5"><path class="cls-6" d="M64,75.36C60.4,56,47,55.67,45.15,55.72S29.89,56,26.3,75.36c0,0,1.8,6.42,19.07,6.42S64,75.36,64,75.36Z"/><path class="cls-7" d="M31.89,19.28s-7.4,1.72-9.28,2.21c0,0-.66.27,0,1.38s4.05,2.9,8.64,2.77Z"/><path class="cls-7" d="M58.38,19.28s7.39,1.72,9.28,2.21c0,0,.66.27,0,1.38s-4,2.9-8.64,2.77Z"/><path class="cls-8" d="M42.82,61.65a7.11,7.11,0,0,0,4.41,0c3.23-1.29,7.09-3.89,7.63-7.65s-21,0-21,0S36.45,60,42.82,61.65Z"/><path class="cls-7" d="M42.82,61.65S25.2,60.38,23.3,45.17,27,15.78,44.12,15.78L48,50.19,37.06,54.43A12.26,12.26,0,0,0,42.82,61.65Z"/><path class="cls-7" d="M53,54.43a12.31,12.31,0,0,1-5.76,7.22s17.62-1.27,19.51-16.48S63.09,15.78,45.93,15.78l-3.32,0,4,33.86Z"/><path class="cls-8" d="M30.68,37.61s-3.37-3.54-5.05,0a6,6,0,0,0,3.82,8.31Z"/><path class="cls-8" d="M58.84,37.61s3.37-3.54,5,0a6,6,0,0,1-3.82,8.31Z"/><path class="cls-9" d="M60.75,42.56c-.28-3.5-1-7.29-1-7.29C57.25,23.88,46,24.13,44.8,24.19s-12.45-.31-15,11.08c0,0-.7,3.79-1,7.29S24,56.64,44.06,57.13v0h1.46v0C65.57,56.64,61,46,60.75,42.56Z"/><path class="cls-10" d="M46.64,23.29s-.38-1.67-1.88-1.79A4.43,4.43,0,0,0,40,26.08c0,3.77,5.65,7.54,10.3,7.54a8.14,8.14,0,0,1-2.88-5.1C46.87,25.09,47.09,25.38,46.64,23.29Z"/><path class="cls-11" d="M38.21,39.71a1.08,1.08,0,1,1-1.07-1.21A1.14,1.14,0,0,1,38.21,39.71Z"/><path class="cls-11" d="M53.16,39.71a1.08,1.08,0,1,1-1.07-1.21A1.14,1.14,0,0,1,53.16,39.71Z"/><path class="cls-12" d="M52,45.31c-.94-3.21-3.55-2.88-4-2.6a5.47,5.47,0,0,1-1.6.39H43.76a5.59,5.59,0,0,1-1.61-.39c-.5-.28-3.1-.61-4,2.6s-.24,7.51,6.78,7.64h.31C52.21,52.82,52.9,48.48,52,45.31Z"/><path class="cls-13" d="M47.94,47.48a2.9,2.9,0,1,1-2.9-2.9A2.9,2.9,0,0,1,47.94,47.48Z"/></g></g></g></svg>