<svg xmlns="http://www.w3.org/2000/svg" viewBox="0 0 375.34 82.1"><defs><style>.cls-1{isolation:isolate;}.cls-2{fill:#f4b3b3;}.cls-3{fill:#f0e6d2;}.cls-3,.cls-9{mix-blend-mode:multiply;}.cls-4{fill:#d2007c;}.cls-5{fill:#2b646c;}.cls-16,.cls-19,.cls-21,.cls-6{fill:#fff;}.cls-7,.cls-8{fill:none;}.cls-8{stroke:#b99800;stroke-miterlimit:10;stroke-width:2px;}.cls-9{fill:#ececff;}.cls-10{fill:#b9006d;}.cls-11{fill:#00a1b9;}.cls-12{fill:#b99800;}.cls-13{fill:#6c612b;}.cls-14{fill:#8b5b25;}.cls-15,.cls-18{fill:#da2c38;}.cls-16{font-size:15px;}.cls-16,.cls-18{font-family:NotoSansCJKkr-Medium-KSCpc-EUC-H, Noto Sans CJK KR;}.cls-17{font-size:9px;fill:#595757;}.cls-17,.cls-21{font-family:NotoSansCJKkr-Regular-KSCpc-EUC-H, Noto Sans CJK KR;}.cls-18{font-size:12px;}.cls-19,.cls-20{font-size:13px;}.cls-20{fill:#231815;}.cls-21{font-size:10.5px;}</style></defs><title>자산 1</title><g class="cls-1"><g id="레이어_2" data-name="레이어 2"><g id="레이어_1-2" data-name="레이어 1"><rect class="cls-2" x="0.28" width="375" height="82.1"/><polygon class="cls-3" points="104.93 42.05 119.13 24.96 111.48 47.49 104.93 42.05"/><polygon class="cls-3" points="147.88 48.1 160.17 29.6 154.98 52.82 147.88 48.1"/><polygon class="cls-3" points="191.55 49.32 201.78 29.6 199.11 53.24 191.55 49.32"/><polygon class="cls-3" points="237.55 45.58 245.65 24.89 245.48 48.68 237.55 45.58"/><polygon class="cls-3" points="277.59 38.37 284.13 17.14 285.73 40.88 277.59 38.37"/><polygon class="cls-4" points="53.94 9.86 78.84 16.97 59.38 36.44 53.94 9.86"/><polygon class="cls-5" points="93.91 20.6 119.38 25.29 101.87 46.53 93.91 20.6"/><polygon class="cls-4" points="134.48 27.16 160.29 29.32 144.96 52.18 134.48 27.16"/><polygon class="cls-5" points="176.24 30.14 202.12 29.39 189.46 53.83 176.24 30.14"/><polygon class="cls-4" points="219.98 28.16 245.66 24.77 235.55 50.37 219.98 28.16"/><polygon class="cls-5" points="258.96 22.59 284.26 17.05 276.34 43.41 258.96 22.59"/><polygon class="cls-3" points="63.44 32.38 79.15 16.67 69.47 38.4 63.44 32.38"/><path class="cls-6" d="M104.71,26.24l3.56,9.38h-1.62l-.86-2.34h-3.34l-.88,2.35H99.94l3.6-9.39Zm.63,5.78-1.24-3.27L102.91,32Z"/><path class="cls-6" d="M192.32,35.4a2.52,2.52,0,0,1-.21,1,2.64,2.64,0,0,1-.57.86h0a3,3,0,0,1,.85,1,2.8,2.8,0,0,1,.32,1.26,2.61,2.61,0,0,1-.21,1,2.7,2.7,0,0,1-.6.87,2.65,2.65,0,0,1-.88.6,2.56,2.56,0,0,1-1.08.23h-4.29l0-9.38h4.06a2.73,2.73,0,0,1,1,.2,2.69,2.69,0,0,1,.84.56,2.66,2.66,0,0,1,.57.8A2.38,2.38,0,0,1,192.32,35.4Zm-5.17-1.3v2.66h2.49a.88.88,0,0,0,.44-.12,1.19,1.19,0,0,0,.36-.32,1.48,1.48,0,0,0,.25-.43,1.41,1.41,0,0,0,.09-.49,1.38,1.38,0,0,0-.32-.92,1.17,1.17,0,0,0-.35-.28,1,1,0,0,0-.44-.1ZM189.92,41a1,1,0,0,0,.49-.13,1.58,1.58,0,0,0,.4-.34,2,2,0,0,0,.27-.48,2,2,0,0,0,.09-.55,2.53,2.53,0,0,0-.08-.52,1.78,1.78,0,0,0-.23-.48,1.38,1.38,0,0,0-.33-.35.86.86,0,0,0-.42-.13h-3v3Z"/><path class="cls-6" d="M277.65,31.33a5,5,0,0,1-1.44,1.07,4.63,4.63,0,0,1-2,.41,4.45,4.45,0,0,1-1.86-.38,4.05,4.05,0,0,1-1.41-1,4.37,4.37,0,0,1-.91-1.5,5,5,0,0,1-.33-1.83,5.27,5.27,0,0,1,.3-1.8,4.38,4.38,0,0,1,.87-1.51,4.27,4.27,0,0,1,1.41-1.05,4.9,4.9,0,0,1,3.83,0,5.55,5.55,0,0,1,1.49,1.07l-1,1a4.72,4.72,0,0,0-1.11-.88,2.76,2.76,0,0,0-1.3-.33,2.57,2.57,0,0,0-1.21.29,2.88,2.88,0,0,0-1,.75,3.55,3.55,0,0,0-.64,1.12,3.93,3.93,0,0,0-.23,1.36,3.7,3.7,0,0,0,.23,1.34,3.2,3.2,0,0,0,.65,1.12,2.81,2.81,0,0,0,1,.75,2.74,2.74,0,0,0,2.51-.05,4.19,4.19,0,0,0,1.08-.89Z"/><rect class="cls-7" x="65.94" y="15.83" width="89.33" height="66"/><path class="cls-8" d="M375.28,28S354.43,26.69,339,13.66l-9.39-9.4s-71.59,26-149.43,26S38,4.26,38,4.26l-9.4,9.4C18.38,22.75.28,28,.28,28"/><path class="cls-6" d="M101.75,26.71a3.87,3.87,0,0,1-1,5.38h0a3.86,3.86,0,0,1-5.37-1l-5-7.31a3.86,3.86,0,0,1,1-5.37h0a3.87,3.87,0,0,1,5.37,1Z"/><path class="cls-9" d="M155.21,63.77a3,3,0,0,1-3,3H29.67a3,3,0,0,1-3-3h0a3,3,0,0,1,3-3H152.24a3,3,0,0,1,3,3Z"/><path class="cls-9" d="M149.63,75.17a3.18,3.18,0,0,1-3.19,3.18H15a3.18,3.18,0,0,1-3.18-3.18h0A3.18,3.18,0,0,1,15,72H146.44a3.18,3.18,0,0,1,3.19,3.18Z"/><rect class="cls-5" x="30.08" y="41.03" width="23.64" height="21.91" rx="3"/><path class="cls-6" d="M34.5,29.48a1.86,1.86,0,0,0-.61,1.76c.53,2.66,7,5.3,7.24,5.41l.73.3-.28-.74c-.11-.27-2.66-6.75-5.31-7.31A1.84,1.84,0,0,0,34.5,29.48Zm.06,1.63a1.05,1.05,0,0,1,0-.24A1.33,1.33,0,0,1,35,30a1.21,1.21,0,0,1,1.15-.4c1.68.36,3.59,4,4.51,6.13C38.54,34.75,34.89,32.79,34.56,31.11Z"/><path class="cls-6" d="M46.84,28.83c-2.64.64-5,7.17-5.12,7.45l-.27.74.73-.31c.27-.12,6.63-2.92,7.1-5.6a2.1,2.1,0,0,0-2.44-2.28Zm.16.66a1.25,1.25,0,0,1,1.16.37,1.23,1.23,0,0,1,.46.94,1.34,1.34,0,0,1,0,.2c-.3,1.69-3.89,3.74-6,4.74C43.52,33.62,45.34,29.89,47,29.49Z"/><rect class="cls-10" x="29.12" y="36.13" width="25.35" height="7.54" rx="3"/><polygon class="cls-6" points="42.95 62.8 39.92 62.78 39.96 36.13 42.98 36.15 42.95 62.8"/><rect class="cls-4" x="19.81" y="56.96" width="23.64" height="17.54" rx="3"/><path class="cls-6" d="M23.24,47.16A1.84,1.84,0,0,0,23,49c1.08,2.48,7.94,3.68,8.23,3.73l.77.14-.43-.66c-.17-.24-4-6-6.76-6A1.86,1.86,0,0,0,23.24,47.16Zm.41,1.58a1,1,0,0,1-.08-.23,1.27,1.27,0,0,1,.24-1,1.19,1.19,0,0,1,1-.64c1.71,0,4.37,3.17,5.71,5C28.32,51.44,24.33,50.31,23.65,48.74Z"/><path class="cls-6" d="M38.43,46.5c-2.7-.32-7.19,5-7.38,5.22l-.51.61.79,0c.29,0,7.24-.45,8.59-2.8a2.08,2.08,0,0,0-1.49-3Zm-.08.68a1.19,1.19,0,0,1,1,.74,1.26,1.26,0,0,1,.11,1,1.51,1.51,0,0,1-.09.18c-.85,1.48-4.94,2.17-7.22,2.4C33.65,49.84,36.64,47,38.35,47.18Z"/><rect class="cls-11" x="18.23" y="52.06" width="26.8" height="8.81" rx="3"/><path class="cls-6" d="M111.86,16.29a4.76,4.76,0,1,1-4.76-4.76A4.76,4.76,0,0,1,111.86,16.29Z"/><path class="cls-12" d="M110.18,17.52a2.76,2.76,0,1,1-2.76-2.76A2.75,2.75,0,0,1,110.18,17.52Z"/><path class="cls-6" d="M120.7,18.47a4.77,4.77,0,1,0,6.73.27A4.76,4.76,0,0,0,120.7,18.47Z"/><path class="cls-12" d="M120.94,20.55a2.76,2.76,0,1,0,3.9.15A2.76,2.76,0,0,0,120.94,20.55Z"/><path class="cls-6" d="M125.29,29a13.13,13.13,0,0,1-26.24,0,13.13,13.13,0,0,1,26.24,0Z"/><rect class="cls-12" x="68.05" y="29.22" width="61.52" height="31.49" rx="3"/><rect class="cls-13" x="68.05" y="49.73" width="61.52" height="2.2"/><path class="cls-14" d="M108.32,25.56a1.22,1.22,0,1,1-2.44,0,1.22,1.22,0,0,1,2.44,0Z"/><path class="cls-14" d="M118.09,26.78a1.22,1.22,0,1,1-1.22-1.22A1.22,1.22,0,0,1,118.09,26.78Z"/><rect class="cls-13" x="68.23" y="36.55" width="61.52" height="2.2"/><rect class="cls-10" x="79.53" y="50.53" width="2.42" height="2.23"/><path class="cls-4" d="M82.58,52.61h-6a2.41,2.41,0,0,0-1.92,1.15l-.61,1.17h5.69a1.31,1.31,0,0,1,1.31,1.3v3a1.31,1.31,0,0,1-1.31,1.3H71.08L71,60.8a6.15,6.15,0,0,0-.61,2.45v5.63a1.31,1.31,0,0,0,1.3,1.31H82.58a1.31,1.31,0,0,0,1.31-1.31v-15A1.31,1.31,0,0,0,82.58,52.61Z"/><path class="cls-11" d="M81.06,59.24v-3a1.31,1.31,0,0,0-1.31-1.3H74.06l-3,5.61h8.67A1.31,1.31,0,0,0,81.06,59.24Z"/><path class="cls-12" d="M81.45,70.19A4.15,4.15,0,1,1,77.3,66,4.15,4.15,0,0,1,81.45,70.19Z"/><path class="cls-14" d="M79.31,70.23a2,2,0,1,1-2-2A2,2,0,0,1,79.31,70.23Z"/><rect class="cls-14" x="85.72" y="59.39" width="13.55" height="10.8" rx="3"/><path class="cls-12" d="M96.82,70.19A4.15,4.15,0,1,1,92.67,66,4.15,4.15,0,0,1,96.82,70.19Z"/><path class="cls-14" d="M94.69,70.23a2,2,0,1,1-2-2A2,2,0,0,1,94.69,70.23Z"/><rect class="cls-14" x="101.1" y="59.39" width="13.55" height="10.8" rx="3"/><path class="cls-12" d="M112.2,70.19A4.15,4.15,0,1,1,108.05,66,4.15,4.15,0,0,1,112.2,70.19Z"/><path class="cls-14" d="M110.07,70.23a2,2,0,1,1-2-2A2,2,0,0,1,110.07,70.23Z"/><rect class="cls-14" x="116.48" y="59.39" width="13.55" height="10.8" rx="3"/><path class="cls-12" d="M127.58,70.19A4.15,4.15,0,1,1,123.43,66,4.15,4.15,0,0,1,127.58,70.19Z"/><path class="cls-14" d="M125.45,70.23a2,2,0,1,1-2-2A2,2,0,0,1,125.45,70.23Z"/><rect class="cls-14" x="131.85" y="59.39" width="13.55" height="10.8" rx="3"/><path class="cls-12" d="M143,70.19A4.15,4.15,0,1,1,138.81,66,4.15,4.15,0,0,1,143,70.19Z"/><path class="cls-14" d="M140.83,70.23a2,2,0,1,1-2-2A2,2,0,0,1,140.83,70.23Z"/><rect class="cls-5" x="83.89" y="61.03" width="1.83" height="7.69"/><rect class="cls-5" x="99.27" y="61.58" width="1.83" height="7.32"/><rect class="cls-5" x="114.64" y="61.95" width="1.83" height="6.77"/><rect class="cls-5" x="130.02" y="62.13" width="1.83" height="6.59"/><ellipse class="cls-4" cx="80.71" cy="49.73" rx="2.45" ry="1.1"/><rect class="cls-6" x="29.33" y="52.06" width="3.93" height="22.44"/><path class="cls-6" d="M82.56,26.73a5.69,5.69,0,0,0-4.35-1.9,5.43,5.43,0,0,0-4.77,2.53L71.9,29.81a3.23,3.23,0,1,0,5.47,3.43l2.69-4h5Z"/><path class="cls-6" d="M96.9,26.73a5.69,5.69,0,0,0-4.35-1.9,5.43,5.43,0,0,0-4.77,2.53l-1.54,2.45a3.23,3.23,0,1,0,5.48,3.43l2.68-4h5Z"/><path class="cls-6" d="M123.79,26.73a5.69,5.69,0,0,1,4.35-1.9,5.43,5.43,0,0,1,4.77,2.53l1.54,2.45A3.23,3.23,0,1,1,129,33.24l-2.69-4h-5Z"/><rect class="cls-15" x="68.23" y="38.75" width="61.33" height="10.98"/><text class="cls-16" transform="translate(75.37 49.83)">50,000</text><path class="cls-13" d="M332.63,4.26a3,3,0,1,1-3-3A3,3,0,0,1,332.63,4.26Z"/><path class="cls-13" d="M40.93,4.26a3,3,0,1,1-3-3A3,3,0,0,1,40.93,4.26Z"/><rect class="cls-6" x="163.95" y="12.07" width="176.67" height="63.1"/><rect class="cls-15" x="163.95" y="35.9" width="176.67" height="17.29"/><text class="cls-17" transform="translate(172.18 66.17)">(선착순 30명에게만 제공됩니다.)</text><text class="cls-18" transform="translate(172.18 29.69)">보험 상담 받으면<tspan class="cls-19" x="82.68" y="0"> </tspan><tspan class="cls-20" x="85.6" y="0">&lt; 모두네임 &gt;</tspan></text><text class="cls-21" transform="translate(172.18 48.48)">아기이름짓기 상품권(5만원)이 무료!</text><path class="cls-9" d="M366.61,73.25a2.6,2.6,0,0,1-2.82,2.3H346.73a2.61,2.61,0,0,1-2.82-2.3h0a2.61,2.61,0,0,1,2.82-2.3h17.06a2.6,2.6,0,0,1,2.82,2.3Z"/><rect class="cls-4" x="348.39" y="62.5" width="14.02" height="10.4" rx="3"/><path class="cls-5" d="M363.35,62c0-1.28-1.34-2.34-3-2.34l-9.9,0c-1.65,0-3,1-3,2.33s1.34,2.33,3,2.34l9.9,0C362,64.28,363.34,63.23,363.35,62Z"/><path class="cls-6" d="M359.35,55.54a1.12,1.12,0,0,0-1.06-.32c-1.26.31-2.42,2.87-2.86,4-.46-1.07-1.69-3.6-2.95-3.87a1.11,1.11,0,0,0-1.05.34,1.09,1.09,0,0,0-.36,1c.28,1.4,3.33,2.8,4.12,3.13l-.1.26.35-.15.36.14-.1-.25c.77-.36,3.79-1.83,4-3.24A1.1,1.1,0,0,0,359.35,55.54Zm-7.88,1.07a.36.36,0,0,1,0-.14.77.77,0,0,1,.26-.54.73.73,0,0,1,.68-.24c1,.21,2.13,2.4,2.67,3.64C353.83,58.77,351.66,57.61,351.47,56.61Zm7.87-.1c-.18,1-2.31,2.22-3.53,2.81.51-1.26,1.59-3.47,2.58-3.7a.69.69,0,0,1,.68.22.73.73,0,0,1,.28.55S359.34,56.47,359.34,56.51Z"/><polygon class="cls-6" points="356.29 72.91 354.49 72.9 354.51 59.59 356.31 59.6 356.29 72.91"/><polygon class="cls-6" points="163.95 12.07 134.48 20.6 163.95 17.71 163.95 12.07"/></g></g></g></svg>